<svg xmlns="http://www.w3.org/2000/svg" viewBox="0 0 1218.5 381.02"><defs><style>.cls-1{fill:#34a2a1;fill-rule:evenodd;}.cls-1,.cls-2{opacity:0.23;}.cls-1,.cls-11,.cls-14,.cls-2,.cls-3,.cls-4,.cls-7,.cls-9{isolation:isolate;}.cls-2,.cls-5{fill:none;}.cls-2{stroke:#227a78;stroke-linejoin:round;stroke-width:2.04px;}.cls-4{font-size:18px;font-family:MicrosoftJhengHeiBold, Microsoft JhengHei;}.cls-4,.cls-6{fill:#404041;}.cls-5{stroke:#404041;stroke-miterlimit:10;stroke-width:2px;}.cls-12,.cls-7{font-size:17px;}.cls-11,.cls-7{fill:#070001;}.cls-11,.cls-14,.cls-7,.cls-9{font-family:MicrosoftJhengHeiRegular, Microsoft JhengHei;}.cls-8{fill:#2b9b97;}.cls-14,.cls-9{font-size:15.28px;fill:#fff;}.cls-10{letter-spacing:-0.08em;}.cls-11{font-size:16px;}.cls-13{letter-spacing:-0.04em;}.cls-14{letter-spacing:-0.11em;}.cls-15{letter-spacing:-0.03em;}</style></defs><g id="圖層_2" data-name="圖層 2"><g id="圖層_1-2" data-name="圖層 1"><polygon class="cls-1" points="1.02 1.02 1217.48 1.02 1217.48 380 1.02 380 1.02 1.02 1.02 1.02"/><polygon class="cls-2" points="1.02 1.02 1217.48 1.02 1217.48 380 1.02 380 1.02 1.02 1.02 1.02"/><g class="cls-3"><text class="cls-4" transform="translate(56.29 55.06)">Flash/SRAM<tspan x="73.05" y="21.6">size</tspan></text></g><g class="cls-3"><text class="cls-4" transform="translate(1105.84 329.56)">Pin</text><text class="cls-4" transform="translate(1105.84 347.56)">count</text></g><polyline class="cls-5" points="159.41 101.55 159.41 291.3 1108.48 291.3"/><polygon class="cls-6" points="151.43 103.89 159.41 90.07 167.38 103.89 151.43 103.89"/><polygon class="cls-6" points="1106.67 299.28 1120.48 291.3 1106.67 283.32 1106.67 299.28"/><text class="cls-7" transform="translate(66.13 153.73)">64/16 KB</text><text class="cls-7" transform="translate(66.13 203.23)">32/16 KB</text><text class="cls-7" transform="translate(75.98 252.73)">16/8 KB</text><text class="cls-7" transform="translate(207.33 327.06)">20-Pin TSSOP</text><text class="cls-7" transform="translate(212.08 350.06)">6.5 x 4.4 mm</text><rect class="cls-8" x="192.84" y="132.25" width="138.28" height="32.27"/><g class="cls-3"><text class="cls-9" transform="translate(209.39 153.56)"><tspan class="cls-10">A</tspan><tspan x="9.4" y="0">T32F421F8P7</tspan></text></g><rect class="cls-8" x="192.84" y="181.75" width="138.28" height="32.27"/><text class="cls-9" transform="translate(209.39 203.06)"><tspan class="cls-10">A</tspan><tspan x="9.4" y="0">T32F421F6P7</tspan></text><rect class="cls-8" x="192.84" y="229.25" width="138.28" height="32.27"/><text class="cls-9" transform="translate(209.39 250.56)"><tspan class="cls-10">A</tspan><tspan x="9.4" y="0">T32F421F4P7</tspan></text><text class="cls-11" transform="translate(675.11 327.06)">32-pin <tspan class="cls-12" x="53.45" y="0">QFN</tspan></text><text class="cls-3"/><text class="cls-7" transform="translate(681.23 350.06)">5 x 5 mm</text><rect class="cls-8" x="648.22" y="132.25" width="138.28" height="32.27"/><g class="cls-3"><text class="cls-9" transform="translate(662.98 153.56)"><tspan class="cls-10">A</tspan><tspan x="9.4" y="0">T32F421K8U7</tspan></text></g><rect class="cls-8" x="648.22" y="181.75" width="138.28" height="32.27"/><g class="cls-3"><text class="cls-9" transform="translate(662.98 203.06)"><tspan class="cls-10">A</tspan><tspan x="9.4" y="0">T32F421K6U7</tspan></text></g><rect class="cls-8" x="648.22" y="229.25" width="138.28" height="32.27"/><g class="cls-3"><text class="cls-9" transform="translate(662.98 250.56)"><tspan class="cls-10">A</tspan><tspan x="9.4" y="0">T32F421K4U7</tspan></text></g><text class="cls-11" transform="translate(824.91 327.06)">32-pin <tspan class="cls-13" x="53.45" y="0">L</tspan><tspan x="60.95" y="0">QFP </tspan></text><text class="cls-7" transform="translate(833.02 350.06)">7 x 7 mm</text><rect class="cls-8" x="800.01" y="132.25" width="138.28" height="32.27"/><g class="cls-3"><text class="cls-9" transform="translate(815.14 153.56)"><tspan class="cls-10">A</tspan><tspan x="9.4" y="0">T32F421K8T7</tspan></text></g><rect class="cls-8" x="800.01" y="181.75" width="138.28" height="32.27"/><g class="cls-3"><text class="cls-9" transform="translate(815.14 203.06)"><tspan class="cls-10">A</tspan><tspan x="9.4" y="0">T32F421K6T7</tspan></text></g><rect class="cls-8" x="800.01" y="229.25" width="138.28" height="32.27"/><g class="cls-3"><text class="cls-9" transform="translate(815.14 250.56)"><tspan class="cls-10">A</tspan><tspan x="9.4" y="0">T32F421K4T7</tspan></text></g><text class="cls-11" transform="translate(972.95 327.06)">48-pin <tspan class="cls-13" x="53.45" y="0">L</tspan><tspan x="60.95" y="0">QFP </tspan></text><text class="cls-7" transform="translate(984.81 350.06)">7 x 7 mm</text><rect class="cls-8" x="951.8" y="132.25" width="138.28" height="32.27"/><g class="cls-3"><text class="cls-9" transform="translate(966.57 153.56)"><tspan class="cls-10">A</tspan><tspan x="9.4" y="0">T32F421C8T7</tspan></text></g><rect class="cls-8" x="951.8" y="181.75" width="138.28" height="32.27"/><g class="cls-3"><text class="cls-9" transform="translate(966.57 203.06)"><tspan class="cls-10">A</tspan><tspan x="9.4" y="0">T32F421C6T7</tspan></text></g><rect class="cls-8" x="951.8" y="229.25" width="138.28" height="32.27"/><g class="cls-3"><text class="cls-9" transform="translate(966.57 250.56)"><tspan class="cls-10">A</tspan><tspan x="9.4" y="0">T32F421C4T7</tspan></text></g><g class="cls-3"><text class="cls-7" transform="translate(520.68 327.06)">32-pin </text><text class="cls-7" transform="translate(577.47 327.06)">QFN</text><text class="cls-7" transform="translate(532.41 350.06)">4 x 4 mm</text></g><rect class="cls-8" x="496.43" y="132.25" width="138.28" height="32.27"/><g class="cls-3"><text class="cls-14" transform="translate(506.58 153.56)">A<tspan class="cls-15" x="8.94" y="0">T32F421K8U7-4</tspan></text></g><rect class="cls-8" x="496.43" y="181.75" width="138.28" height="32.27"/><g class="cls-3"><text class="cls-14" transform="translate(506.58 203.06)">A<tspan class="cls-15" x="8.94" y="0">T32F421K6U7-4</tspan></text></g><rect class="cls-8" x="496.43" y="229.25" width="138.28" height="32.27"/><g class="cls-3"><text class="cls-14" transform="translate(506.58 250.56)">A<tspan class="cls-15" x="8.94" y="0">T32F421K4U7-4</tspan></text></g><g class="cls-3"><text class="cls-7" transform="translate(367.16 327.06)">28-pin </text><text class="cls-7" transform="translate(423.95 327.06)">QFN</text><text class="cls-7" transform="translate(378.89 350.06)">4 x 4 mm</text></g><rect class="cls-8" x="344.64" y="132.25" width="138.28" height="32.27"/><text class="cls-9" transform="translate(358.48 153.56)"><tspan class="cls-10">A</tspan><tspan x="9.4" y="0">T32F421G8U7</tspan></text><rect class="cls-8" x="344.64" y="181.75" width="138.28" height="32.27"/><text class="cls-9" transform="translate(358.48 203.06)"><tspan class="cls-10">A</tspan><tspan x="9.4" y="0">T32F421G6U7</tspan></text><rect class="cls-8" x="344.64" y="229.25" width="138.28" height="32.27"/><text class="cls-9" transform="translate(358.48 250.56)"><tspan class="cls-10">A</tspan><tspan x="9.4" y="0">T32F421G4U7</tspan></text></g></g></svg>