<?xml version="1.0" encoding="UTF-8"?><svg xmlns="http://www.w3.org/2000/svg" width="800" height="480" viewBox="0 0 800 480"><g id="a"/><g id="b"><rect width="800" height="480" fill="#fff"/></g><g id="c"><rect x="462.67" y="233.87" width="306.97" height="102.68" fill="#e6e7e8"/><text transform="translate(591.85 242.17)" font-family="Arial-BoldMT, Arial" font-size="9"><tspan x="0" y="0">Networking</tspan></text><rect x="31.58" y="25.4" width="170.81" height="196.03" fill="#e6e7e8"/><text transform="translate(83.52 35.11)" font-family="Arial-BoldMT, Arial" font-size="9"><tspan x="0" y="0">System Control</tspan></text><rect x="41.34" y="42.51" width="151.29" height="12.45" fill="#efb18f"/><text transform="translate(89.76 51.33)" font-family="ArialMT, Arial" font-size="9"><tspan x="0" y="0">Secure JTAG</tspan></text><rect x="41.34" y="58.07" width="151.29" height="13.48" fill="#efb18f"/><text transform="translate(96.51 67.71)" font-family="ArialMT, Arial" font-size="9"><tspan x="0" y="0">PLL, OSC</tspan></text><rect x="41.34" y="106.82" width="151.29" height="12.45" fill="#efb18f"/><text transform="translate(91.52 116.88)" font-family="ArialMT, Arial" font-size="9"><tspan x="0" y="0">GP Timer x2</tspan></text><rect x="41.34" y="155.56" width="151.29" height="13.48" fill="#efb18f"/><text transform="translate(91.27 166.04)" font-family="ArialMT, Arial" font-size="9"><tspan x="0" y="0">FlexPWM x4</tspan></text><rect x="41.34" y="74.66" width="151.29" height="12.45" fill="#efb18f"/><text transform="translate(98.27 84.1)" font-family="ArialMT, Arial" font-size="9"><tspan x="0" y="0">eDMA x2</tspan></text><rect x="41.34" y="90.22" width="151.29" height="12.45" fill="#efb18f"/><text transform="translate(88.51 100.49)" font-family="ArialMT, Arial" font-size="9"><tspan x="0" y="0">Watch Dog x6</tspan></text><rect x="41.34" y="138.97" width="151.29" height="12.45" fill="#efb18f"/><text transform="translate(88.26 149.65)" font-family="ArialMT, Arial" font-size="9"><tspan x="0" y="0">QuadTimer x8</tspan></text><rect x="41.34" y="122.37" width="151.29" height="13.48" fill="#efb18f"/><text transform="translate(78.75 133.27)" font-family="ArialMT, Arial" font-size="9"><tspan x="0" y="0">Quadrature Dec x4</tspan></text><rect x="41.34" y="172.16" width="151.29" height="13.48" fill="#efb18f"/><text transform="translate(101.27 182.43)" font-family="ArialMT, Arial" font-size="9"><tspan x="0" y="0">LPIT x3</tspan></text><rect x="41.34" y="188.76" width="151.29" height="12.45" fill="#efb18f"/><text transform="translate(95.52 198.82)" font-family="ArialMT, Arial" font-size="9"><tspan x="0" y="0">LPTMR x3</tspan></text><rect x="41.34" y="205.35" width="151.29" height="13.48" fill="#efb18f"/><text transform="translate(95.77 215.2)" font-family="ArialMT, Arial" font-size="9"><tspan x="0" y="0">LPTPM x6</tspan></text><rect x="208.9" y="25.4" width="245.64" height="87.12" fill="#e6e7e8"/><rect x="217.84" y="41.47" width="226.12" height="67.42" fill="#bfd730"/><rect x="225.16" y="45.1" width="211.48" height="14.52" fill="#e3ecae"/><rect x="225.16" y="77.26" width="63.44" height="11.41" fill="#e3ecae"/><rect x="225.16" y="91.78" width="211.48" height="13.48" fill="#e3ecae"/><rect x="332.53" y="61.7" width="104.11" height="12.45" fill="#e3ecae"/><rect x="365.07" y="77.26" width="71.58" height="11.41" fill="#e3ecae"/><rect x="225.16" y="61.7" width="100.86" height="13.48" fill="#e3ecae"/><rect x="291.86" y="77.26" width="69.95" height="11.41" fill="#e3ecae"/><rect x="208.9" y="116.44" width="245.64" height="92.54" fill="#e6e7e8"/><rect x="217.84" y="129.63" width="226.12" height="75.72" fill="#bfd730"/><rect x="225.16" y="142.6" width="211.48" height="14.52" fill="#e3ecae"/><rect x="225.16" y="173.72" width="63.44" height="12.45" fill="#e3ecae"/><rect x="225.16" y="189.27" width="211.48" height="12.45" fill="#e3ecae"/><rect x="332.53" y="159.19" width="104.11" height="12.45" fill="#e3ecae"/><rect x="366.69" y="173.72" width="69.95" height="12.45" fill="#e3ecae"/><rect x="225.16" y="159.19" width="102.49" height="12.45" fill="#e3ecae"/><rect x="291.86" y="173.72" width="69.95" height="12.45" fill="#e3ecae"/><rect x="210.52" y="292.59" width="244.02" height="43.97" fill="#e6e7e8"/><text transform="translate(290.7 302.33)" font-family="Arial-BoldMT, Arial" font-size="9"><tspan x="0" y="0">Power Management</tspan></text><rect x="219.47" y="321.52" width="228.75" height="12.45" fill="#9da9b0"/><text transform="translate(305.12 329.29)" font-family="ArialMT, Arial" font-size="9"><tspan x="0" y="0">Temp Monitor</tspan></text><rect x="219.47" y="305.96" width="228.75" height="12.45" fill="#9da9b0"/><text transform="translate(303.71 315.81)" font-family="ArialMT, Arial" font-size="9"><tspan x="0" y="0">DC-DC &amp; LDO</tspan></text><rect x="31.58" y="277.44" width="170.81" height="59.4" fill="#e8e7ea"/><text transform="translate(102.33 285.73)" font-family="Arial-BoldMT, Arial" font-size="9"><tspan x="0" y="0">Analog</tspan></text><rect x="41.34" y="304.92" width="151.29" height="12.45" fill="#b8abd0"/><text transform="translate(100.83 313.74)" font-family="ArialMT, Arial" font-size="9"><tspan x="0" y="0">DAC x1 </tspan></text><rect x="31.58" y="224.54" width="170.81" height="49.48" fill="#e6e7e8"/><text transform="translate(81.42 235.95)" font-family="Arial-BoldMT, Arial" font-size="9"><tspan x="0" y="0">Internal Memory</tspan></text><rect x="41.34" y="257.84" width="151.13" height="12.47" fill="#a6b9e0"/><text transform="translate(105.68 267.06)" font-family="ArialMT, Arial" font-size="9"><tspan x="0" y="0">ROM</tspan></text><rect x="41.34" y="240.62" width="151.13" height="13.36" fill="#a6b9e0"/><text transform="translate(59.17 250.43)" font-family="ArialMT, Arial" font-size="9"><tspan x="0" y="0">Up to 1.5 MB SRAM w/ ECC</tspan></text><rect x="210.52" y="213.13" width="245.64" height="76.11" fill="#e6e7e8"/><text transform="translate(296.69 222.5)" font-family="Arial-BoldMT, Arial" font-size="9"><tspan x="0" y="0">External Memory</tspan></text><rect x="217.84" y="227.13" width="231" height="23.86" fill="#f8abaa"/><text transform="translate(266.43 235.95)" font-family="ArialMT, Arial" font-size="9"><tspan x="0" y="0">FlexSPI x2 (Dual Channel QSPI) </tspan><tspan x="-8.48" y="11">HyperRAM</tspan></text><text transform="translate(301.96 243.95) scale(.58)" font-family="ArialMT, Arial" font-size="9"><tspan x="0" y="0">™</tspan></text><text transform="translate(307.2 246.95)" font-family="ArialMT, Arial" font-size="9"><tspan x="0" y="0" xml:space="preserve"> /HyperFlash</tspan></text><text transform="translate(358.22 243.95) scale(.58)" font-family="ArialMT, Arial" font-size="9"><tspan x="0" y="0">™</tspan></text><text transform="translate(363.47 246.95)" font-family="ArialMT, Arial" font-size="9"><tspan x="0" y="0" xml:space="preserve"> w/OTFAD </tspan></text><rect x="217.84" y="253.06" width="231" height="32.83" fill="#f8abaa"/><text transform="translate(278.19 260.84)" font-family="ArialMT, Arial" font-size="9"><tspan x="0" y="0">External Memory Controller</tspan><tspan x="-7" y="11">8/16/32-bit SDRAM/LPSDRAM</tspan><tspan x="2.25" y="22">NAND/Parallel NOR Flash</tspan></text><rect x="462.67" y="25.4" width="307.46" height="204.33" fill="#e6e7e8"/><text transform="translate(590.85 35.77)" font-family="Arial-BoldMT, Arial" font-size="9"><tspan x="0" y="0">Connectivity</tspan></text><rect x="619.65" y="89.41" width="141.53" height="19.71" fill="#00b1b0"/><text transform="translate(677.13 101.11)" font-family="ArialMT, Arial" font-size="9"><tspan x="0" y="0">I2C x6</tspan></text><rect x="619.65" y="209.5" width="141.53" height="17.63" fill="#00b1b0"/><text transform="translate(667.14 220.39)" font-family="ArialMT, Arial" font-size="9"><tspan x="0" y="0">CAN-FD x3</tspan></text><rect x="619.65" y="113.22" width="141.53" height="19.71" fill="#00b1b0"/><text transform="translate(671.38 124.97)" font-family="ArialMT, Arial" font-size="9"><tspan x="0" y="0">LPSPI x6</tspan></text><rect x="619.65" y="138.07" width="141.53" height="17.63" fill="#00b1b0"/><text transform="translate(678.89 148.82)" font-family="ArialMT, Arial" font-size="9"><tspan x="0" y="0">GPIO</tspan></text><rect x="619.65" y="161.36" width="141.53" height="18.67" fill="#00b1b0"/><text transform="translate(656.05 172.68)" font-family="ArialMT, Arial" font-size="9"><tspan x="0" y="0">FlexSPI Follower</tspan></text><rect x="619.65" y="184.65" width="141.53" height="19.71" fill="#00b1b0"/><text transform="translate(676.88 196.53)" font-family="ArialMT, Arial" font-size="9"><tspan x="0" y="0">SPDIF</tspan></text><rect x="619.65" y="65.6" width="141.53" height="19.71" fill="#00b1b0"/><rect x="619.65" y="41.79" width="141.53" height="19.71" fill="#00b1b0"/><rect x="470.75" y="89.41" width="141.53" height="19.71" fill="#00b1b0"/><rect x="470.75" y="209.5" width="141.53" height="17.63" fill="#00b1b0"/><rect x="470.75" y="113.22" width="141.53" height="19.71" fill="#00b1b0"/><rect x="470.75" y="138.07" width="141.53" height="17.63" fill="#00b1b0"/><rect x="470.75" y="161.36" width="141.53" height="18.67" fill="#00b1b0"/><rect x="470.75" y="184.65" width="141.53" height="19.71" fill="#00b1b0"/><rect x="470.75" y="65.6" width="141.53" height="19.71" fill="#00b1b0"/><rect x="470.75" y="41.79" width="141.53" height="19.71" fill="#00b1b0"/><text transform="translate(646.87 77.26)" font-family="ArialMT, Arial" font-size="9"><tspan x="0" y="0">8-ch. Digital Mic Input</tspan></text><rect x="479.75" y="247.88" width="169.18" height="12.45" fill="#fff"/><rect x="479.75" y="314.64" width="169.18" height="12.45" fill="#ed1556"/><text transform="translate(518.82 256.69)" font-family="ArialMT, Arial" font-size="9"><tspan x="0" y="0">TSN End-point GMAC </tspan></text><rect x="652.82" y="247.88" width="106.75" height="12.45" fill="#fff"/><rect x="479.75" y="269.49" width="169.18" height="36.57" fill="#6dacde"/><rect x="652.82" y="269.49" width="106.75" height="12.45" fill="#6dacde"/><rect x="652.82" y="284.54" width="106.75" height="12.45" fill="#6dacde"/><g><rect x="652.54" y="299.59" width="106.75" height="12.45" fill="#ed1556"/><polygon points="652.54 299.59 759.28 299.59 759.28 312.04 652.54 299.59" fill="#6dacde"/></g><g><rect x="652.54" y="314.66" width="106.75" height="12.45" fill="#ed1556"/><polygon points="652.54 314.66 759.28 314.66 759.28 327.11 652.54 314.66" fill="#6dacde"/></g><text transform="translate(695.32 256.69)" font-family="ArialMT, Arial" font-size="9"><tspan x="0" y="0">Port 4</tspan></text><rect x="41.34" y="320.48" width="151.29" height="13.48" fill="#b8abd0"/><text transform="translate(98.58 329.29)" font-family="ArialMT, Arial" font-size="9"><tspan x="0" y="0">ACMP x4</tspan></text><text transform="translate(34.75 425.76)" font-family="ArialMT, Arial" font-size="9"><tspan x="0" y="0">*up to 2x simultaneous conversion per ADC</tspan><tspan x="0" y="12" xml:space="preserve"> Configuration depends on package selection</tspan></text><text transform="translate(525.56 284.7)" font-family="ArialMT, Arial" font-size="9"><tspan x="0" y="0">4-ports TSN Switch</tspan><tspan x="-5.76" y="11">with 1x TSN End point</tspan></text><rect x="31.58" y="339.67" width="737.46" height="67.42" fill="#e6e7e8"/><text transform="translate(339.53 349)" font-family="Arial-BoldMT, Arial" font-size="9"><tspan x="0" y="0">EdgeLock</tspan></text><text transform="translate(382.53 346) scale(.58)" font-family="Arial-BoldMT, Arial" font-size="9"><tspan x="0" y="0">®</tspan></text><text transform="translate(386.4 349)" font-family="Arial-BoldMT, Arial" font-size="9"><tspan x="0" y="0" xml:space="preserve"> Secure Enclave </tspan></text><rect x="41.34" y="353.15" width="356.15" height="15.56" fill="#a3dadb"/><text transform="translate(196.33 363.49)" font-family="ArialMT, Arial" font-size="9"><tspan x="0" y="0">Secure Boot</tspan></text><rect x="41.34" y="371.24" width="175.55" height="14.52" fill="#a3dadb"/><text transform="translate(96.62 381.16)" font-family="ArialMT, Arial" font-size="9"><tspan x="0" y="0">Trust Monitor</tspan></text><rect x="41.34" y="388.42" width="175.55" height="15.56" fill="#a3dadb"/><rect x="222.45" y="371.24" width="175.55" height="14.52" fill="#a3dadb"/><rect x="222.45" y="388.42" width="175.55" height="15.56" fill="#a3dadb"/><rect x="404.21" y="353.15" width="356.15" height="15.56" fill="#a3dadb"/><rect x="404.21" y="371.24" width="175.55" height="14.52" fill="#a3dadb"/><rect x="404.21" y="388.42" width="175.55" height="15.56" fill="#a3dadb"/><rect x="585.31" y="371.24" width="175.55" height="14.52" fill="#a3dadb"/><rect x="585.31" y="388.42" width="175.55" height="15.56" fill="#a3dadb"/><text transform="translate(105.7 398.27)" font-family="ArialMT, Arial" font-size="9"><tspan x="0" y="0">Lifecycle</tspan></text><text transform="translate(300.16 398.27)" font-family="ArialMT, Arial" font-size="9"><tspan x="0" y="0">OTP</tspan></text><text transform="translate(280.64 381.16)" font-family="ArialMT, Arial" font-size="9"><tspan x="0" y="0">Secure Debug</tspan></text><rect x="41.34" y="289.14" width="151.29" height="12.45" fill="#b8abd0"/><text transform="translate(77.32 298.18)" font-family="ArialMT, Arial" font-size="9"><tspan x="0" y="0">HSADC x2 (30-ch.)*</tspan></text><text transform="translate(610.81 381.15)" font-family="ArialMT, Arial" font-size="9"><tspan x="0" y="0">AES (CBC/CMAC/HMAC/GCM) </tspan></text><text transform="translate(480.77 399.44)" font-family="ArialMT, Arial" font-size="9"><tspan x="0" y="0">TRNG</tspan></text><text transform="translate(458.01 381.3)" font-family="ArialMT, Arial" font-size="9"><tspan x="0" y="0">PKC: RSA / ECC </tspan></text><text transform="translate(625.77 398.79)" font-family="ArialMT, Arial" font-size="9"><tspan x="0" y="0">SHA2 (224/256/384/512)</tspan></text><text transform="translate(525.1 363.52)" font-family="ArialMT, Arial" font-size="9"><tspan x="0" y="0">Public/Private Key Storage</tspan></text><text transform="translate(288.18 35.77)" font-family="Arial-BoldMT, Arial" font-size="9"><tspan x="0" y="0">Main CPU Platform</tspan></text><text transform="translate(294.33 54.44)" font-family="ArialMT, Arial" font-size="9"><tspan x="0" y="0">Arm</tspan></text><text transform="translate(310.83 51.44) scale(.58)" font-family="ArialMT, Arial" font-size="9"><tspan x="0" y="0">®</tspan></text><text transform="translate(314.69 54.44)" font-family="ArialMT, Arial" font-size="9"><tspan x="0" y="0" xml:space="preserve"> Cortex</tspan></text><text transform="translate(343.7 51.44) scale(.58)" font-family="ArialMT, Arial" font-size="9" letter-spacing="0em"><tspan x="0" y="0">®</tspan></text><text transform="translate(347.57 54.44)" font-family="ArialMT, Arial" font-size="9"><tspan x="0" y="0">-M7</tspan></text><text transform="translate(248 84.52)" font-family="ArialMT, Arial" font-size="9"><tspan x="0" y="0">FPU</tspan></text><text transform="translate(275.67 100.07)" font-family="ArialMT, Arial" font-size="9"><tspan x="0" y="0">Up to 512KB TCM w/ ECC</tspan></text><text transform="translate(356.26 69.99)" font-family="ArialMT, Arial" font-size="9"><tspan x="0" y="0">32 KB D-cache</tspan></text><text transform="translate(388.75 84.52)" font-family="ArialMT, Arial" font-size="9"><tspan x="0" y="0">NVIC</tspan></text><text transform="translate(252.06 69.99)" font-family="ArialMT, Arial" font-size="9"><tspan x="0" y="0">32 KB I-cache</tspan></text><text transform="translate(314.95 84.52)" font-family="ArialMT, Arial" font-size="9"><tspan x="0" y="0">MPU</tspan></text><text transform="translate(285.68 139.49)" font-family="ArialMT, Arial" font-size="9"><tspan x="0" y="0">Secure CPU Platform</tspan></text><text transform="translate(269.43 151.93)" font-family="ArialMT, Arial" font-size="9"><tspan x="0" y="0">Arm Cortex-M33 w/TrustZone</tspan></text><text transform="translate(249.66 182.01)" font-family="ArialMT, Arial" font-size="9"><tspan x="0" y="0">FPU</tspan></text><text transform="translate(286.43 197.57)" font-family="ArialMT, Arial" font-size="9"><tspan x="0" y="0">256 KB TCM w/ ECC</tspan></text><text transform="translate(352.73 167.49)" font-family="ArialMT, Arial" font-size="9"><tspan x="0" y="0">16 KB S-cache</tspan></text><text transform="translate(390.59 182.01)" font-family="ArialMT, Arial" font-size="9"><tspan x="0" y="0">NVIC</tspan></text><text transform="translate(245.04 167.49)" font-family="ArialMT, Arial" font-size="9"><tspan x="0" y="0">16 KB C-cache</tspan></text><text transform="translate(316.57 182.01)" font-family="ArialMT, Arial" font-size="9"><tspan x="0" y="0">MPU</tspan></text><text transform="translate(283.42 124.97)" font-family="Arial-BoldMT, Arial" font-size="9"><tspan x="0" y="0">Secure CPU Platform</tspan></text><text transform="translate(677.64 53.4)" font-family="ArialMT, Arial" font-size="9"><tspan x="0" y="0">ASRC</tspan></text><text transform="translate(498.26 53.4)" font-family="ArialMT, Arial" font-size="9"><tspan x="0" y="0">eMMC 5.1 / SD 3.0 x2</tspan></text><text transform="translate(521.77 77.26)" font-family="ArialMT, Arial" font-size="9"><tspan x="0" y="0">UART x12</tspan></text><text transform="translate(523.27 148.82)" font-family="ArialMT, Arial" font-size="9"><tspan x="0" y="0">FlexIO x2</tspan></text><text transform="translate(493.76 172.68)" font-family="ArialMT, Arial" font-size="9"><tspan x="0" y="0">USB2.0 OTG w/ PHY x2</tspan></text><text transform="translate(518.76 101.11)" font-family="ArialMT, Arial" font-size="9"><tspan x="0" y="0">8x8 Keypad</tspan></text><text transform="translate(529.52 124.97)" font-family="ArialMT, Arial" font-size="9"><tspan x="0" y="0">I3C x2</tspan></text><text transform="translate(528.02 196.53)" font-family="ArialMT, Arial" font-size="9"><tspan x="0" y="0">SAI x 4</tspan></text><text transform="translate(491.51 220.39)" font-family="ArialMT, Arial" font-size="9"><tspan x="0" y="0">Delta-sigma Demodulator</tspan></text><text transform="translate(695.17 293.69)" font-family="ArialMT, Arial" font-size="9"><tspan x="0" y="0">Port 2</tspan></text><text transform="translate(695.17 278.47)" font-family="ArialMT, Arial" font-size="9"><tspan x="0" y="0">Port 3</tspan></text><text transform="translate(695.17 308.9)" font-family="ArialMT, Arial" font-size="9"><tspan x="0" y="0">Port 1</tspan></text><text transform="translate(695.17 324.11)" font-family="ArialMT, Arial" font-size="9"><tspan x="0" y="0">Port 0</tspan></text><text transform="translate(508.8 324.11)" font-family="ArialMT, Arial" font-size="9"><tspan x="0" y="0">EtherCAT Device Controller</tspan></text></g><g id="d"/></svg>